# xmcd
#
# Track frame offsets:
#	150
#	16500
#	30725
#	47735
#	58847
#	70312
#	86272
#	104645
#	119325
#	137247
#	151130
#	166515
#	177812
#	193277
#
# Disc length: 2764
#
# Revision: 1
# Processed by: cddbd v1.5.1PL0 Copyright (c) Steve Scherf et al.
# Submitted via: VisiTrax 2.9.3.171 - For more info visit www.synapsa.com
# Normalized: r0:DSETVAR1
#
DISCID=b40aca0e
DTITLE=Various Artist - Mr Music Country 12-00
DYEAR=1900
DGENRE=
TTITLE0=Terri Clark - Easy From Now On
TTITLE1=Becky Hobbs - The Devil May Care
TTITLE2=Marty Brown - He Thinks Daddy Hung The Moon
TTITLE3=Dale Watson - Honky Tonk Christmas
TTITLE4=Myra Pearce - Rollin' On Home For Christmas
TTITLE5=Mark Moseley - When The Vow Breaks
TTITLE6=Redmon and Vale - Rumors
TTITLE7=Joe Diffie - Leroy The Redneck Reindeer
TTITLE8=kasey Chambers - These Pines
TTITLE9=Owen Temple - I'm a Long Gone Daddy
TTITLE10=The Woodys - High Lonesome
TTITLE11=Mike Black - Christmas In a Texas Town
TTITLE12=Clay Baker - Nothing But a Memory
TTITLE13=Donna Love - One Man Band
EXTD=
EXTT0=
EXTT1=
EXTT2=
EXTT3=
EXTT4=
EXTT5=
EXTT6=
EXTT7=
EXTT8=
EXTT9=
EXTT10=
EXTT11=
EXTT12=
EXTT13=
PLAYORDER=
